<?xml version="1.0" encoding="UTF-8" standalone="no"?>
<!DOCTYPE svg PUBLIC "-//W3C//DTD SVG 1.1//EN" "http://www.w3.org/Graphics/SVG/1.1/DTD/svg11.dtd">
<svg width="100%" height="100%" viewBox="0 0 73 48" version="1.1" xmlns="http://www.w3.org/2000/svg" xmlns:xlink="http://www.w3.org/1999/xlink" xml:space="preserve" xmlns:serif="http://www.serif.com/" style="fill-rule:evenodd;clip-rule:evenodd;stroke-linecap:round;stroke-linejoin:round;stroke-miterlimit:1.5;">
    <g transform="matrix(1,0,0,1,-13.5417,-1.04167)">
        <g transform="matrix(1.05848,0,0,1.10964,-6.10688,-5.88153)">
            <path d="M86.073,14.733C86.073,10.771 82.7,7.553 78.546,7.553L27.468,7.553C23.313,7.553 19.941,10.771 19.941,14.733L19.941,40.927C19.941,44.89 23.313,48.107 27.468,48.107L78.546,48.107C82.7,48.107 86.073,44.89 86.073,40.927L86.073,14.733Z" style="fill:rgb(235,235,235);"/>
            <clipPath id="_clip1">
                <path d="M86.073,14.733C86.073,10.771 82.7,7.553 78.546,7.553L27.468,7.553C23.313,7.553 19.941,10.771 19.941,14.733L19.941,40.927C19.941,44.89 23.313,48.107 27.468,48.107L78.546,48.107C82.7,48.107 86.073,44.89 86.073,40.927L86.073,14.733Z"/>
            </clipPath>
            <g clip-path="url(#_clip1)">
                <g transform="matrix(0.944747,0,0,0.901195,5.84954,6.65694)">
                    <g transform="matrix(1,0,0,1,40.917,-16.6125)">
                        <circle cx="28.94" cy="19.644" r="3.032"/>
                    </g>
                    <g transform="matrix(1,0,0,1,20.975,-16.6125)">
                        <circle cx="28.94" cy="19.644" r="3.032"/>
                    </g>
                    <g transform="matrix(1,0,0,1,1.03304,-17.1443)">
                        <circle cx="28.94" cy="19.644" r="3.032"/>
                    </g>
                </g>
                <g transform="matrix(0.691632,0,0,0.659749,17.5215,20.9917)">
                    <text x="60.989px" y="28.261px" style="font-family:'Arial-BoldMT', 'Arial', sans-serif;font-weight:700;font-size:50px;">P</text>
                </g>
                <g transform="matrix(0.967031,0,0,1.28409,4.65523,0.90531)">
                    <path d="M50,12.847C50,11.883 48.91,11.1 47.568,11.1L23.123,11.1C21.781,11.1 20.691,11.883 20.691,12.847L20.691,12.862C20.691,13.826 21.781,14.609 23.123,14.609L47.568,14.609C48.91,14.609 50,13.826 50,12.862L50,12.847Z" style="fill:rgb(110,110,110);"/>
                </g>
                <g transform="matrix(0.967031,0,0,1.28409,4.65523,7.42888)">
                    <path d="M50,12.847C50,11.883 48.91,11.1 47.568,11.1L23.123,11.1C21.781,11.1 20.691,11.883 20.691,12.847L20.691,12.862C20.691,13.826 21.781,14.609 23.123,14.609L47.568,14.609C48.91,14.609 50,13.826 50,12.862L50,12.847Z" style="fill:rgb(110,110,110);"/>
                </g>
                <g transform="matrix(0.967031,0,0,2.72291,4.65523,0.114585)">
                    <path d="M50,12.326C50,11.649 48.379,11.1 46.382,11.1L24.309,11.1C22.312,11.1 20.691,11.649 20.691,12.326L20.691,13.383C20.691,14.06 22.312,14.609 24.309,14.609L46.382,14.609C48.379,14.609 50,14.06 50,13.383L50,12.326Z" style="fill:rgb(110,110,110);"/>
                </g>
            </g>
            <path d="M86.073,14.733C86.073,10.771 82.7,7.553 78.546,7.553L27.468,7.553C23.313,7.553 19.941,10.771 19.941,14.733L19.941,40.927C19.941,44.89 23.313,48.107 27.468,48.107L78.546,48.107C82.7,48.107 86.073,44.89 86.073,40.927L86.073,14.733Z" style="fill:none;stroke:black;stroke-width:2.69px;"/>
        </g>
    </g>
</svg>
